<svg version="1.1" xmlns="http://www.w3.org/2000/svg" xmlns:xlink="http://www.w3.org/1999/xlink" width="253.35171" height="129.63109" viewBox="0,0,253.35171,129.63109"><g transform="translate(-111.22583,-113.20052)"><g data-paper-data="{&quot;isPaintingLayer&quot;:true}" stroke-linejoin="miter" stroke-miterlimit="10" stroke-dasharray="" stroke-dashoffset="0" style="mix-blend-mode: normal"><g stroke="none" stroke-linecap="butt"><path d="M304.00574,195.99154c10.80347,-13.3575 28.1587,-29.79074 42.16836,-40.77552c0.697,-0.52727 1.53339,-0.61515 2.23039,-0.08788c5.08808,3.69089 11.63986,10.72115 16.03095,16.96051c0.2788,0.43939 0.1394,1.2303 -0.3485,1.40605c-22.09483,9.49086 -34.43168,18.89383 -43.28355,32.16346c-0.3485,0.52727 -0.90609,0.7909 -1.394,0.61514c-4.73958,-1.31817 -10.66406,-4.48179 -15.12485,-7.46965c-0.90609,-0.61515 -1.0455,-2.0212 -0.2788,-2.81211z" data-paper-data="{&quot;index&quot;:null}" fill="#e2231a" fill-rule="evenodd" stroke-width="1"/><path d="M347.2893,159.17054c3.76378,3.2515 8.29427,7.99693 11.70956,12.21508c-20.07353,9.49086 -31.0861,18.10293 -40.00767,31.02103c-3.41529,-1.14242 -8.85187,-3.51513 -11.98836,-5.71209c11.15197,-12.47871 26.34652,-26.53924 40.28647,-37.52402z" data-paper-data="{&quot;index&quot;:null}" fill="#ffffff" fill-rule="evenodd" stroke-width="1"/><path d="M299.54375,198.80185c4.46078,-2.98786 10.38527,-6.15148 15.12485,-7.46966c0.4879,-0.17576 1.0455,0.08788 1.394,0.61515c8.85187,13.26962 21.18873,22.6726 43.28355,32.16346c0.4879,0.17576 0.6273,0.96666 0.3485,1.40605c-4.39108,6.23936 -10.94286,13.26962 -16.03094,16.96051c-0.697,0.52727 -1.5334,0.43939 -2.2304,-0.08788c-14.00966,-10.98478 -31.36489,-27.41802 -42.16836,-40.77552c-0.7667,-0.79091 -0.62729,-2.19696 0.2788,-2.81211z" fill="#e2231a" fill-rule="evenodd" stroke-width="1"/><path d="M302.26204,200.91093c3.13649,-2.19696 8.57307,-4.56967 11.98836,-5.71209c8.92157,12.9181 19.93414,21.53017 40.00767,31.02103c-3.41529,4.21815 -7.94578,8.96358 -11.70956,12.21508c-13.93995,-10.98478 -29.1345,-25.04531 -40.28647,-37.52402z" fill="#ffffff" fill-rule="evenodd" stroke-width="1"/><path d="M295.27197,235.46289c-0.17085,-20.1807 2.43321,-48.49958 7.81266,-69.21338c0.24325,-0.82513 0.75012,-1.47557 1.44183,-1.88974c7.69777,-4.11756 15.99456,-7.30711 25.10254,-8.97287c0.7978,-0.11626 1.41397,0.67136 1.18786,1.3561c-9.12894,22.25044 -12.04485,51.95596 -8.06343,73.5994c0.16073,1.01694 -0.38042,1.94814 -1.27413,2.2664c-8.51593,3.23403 -16.27477,4.3522 -24.10541,4.89173c-1.07855,0.08197 -2.0987,-0.89747 -2.10192,-2.03764z" fill="#e2231a" fill-rule="evenodd" stroke-width="1"/><path d="M324.49553,160.6725c-7.95127,23.10665 -8.82954,50.71024 -6.05257,68.21734c-6.99213,2.42284 -12.37472,3.3326 -18.8289,3.68406c0.32208,-19.55061 2.26496,-45.95563 7.43866,-64.9849c4.83502,-2.25889 11.01916,-5.06536 17.44281,-6.91651z" fill="#ffffff" fill-rule="evenodd" stroke-width="1"/><path d="M325.94764,219.54538c0,2.5 -2.5,2.5 -2.5,2.5h-0.97339c-2.83984,-0.11074 -3.25234,0.60457 -5.39616,2.53204c0,0 -1.86852,1.66091 -3.52943,-0.20761c-1.66091,-1.86852 0.20761,-3.52943 0.20761,-3.52943c0.99652,-0.87745 1.83811,-1.5771 2.66353,-2.12463l-0.29878,-1.64331l0.08423,-0.01531l-0.11445,-0.20738c-0.01498,-4.30119 0.41206,-8.51676 0.6153,-12.78105c-0.42359,0.33124 -0.86058,0.6568 -1.31534,0.97716c0,0 -2.04808,1.43366 -3.48174,-0.61442c-0.8242,-1.17742 -0.49768,-2.15178 -0.07112,-2.76741c-0.93935,-0.35965 -1.60634,-1.2697 -1.60634,-2.33554c0,-1.0731 0.67612,-1.9883 1.6256,-2.34282l1.96119,-0.78447c1.29293,-1.32482 1.61664,-3.3703 2.401,-4.80245c-0.73408,0 -2.53963,0 -2.53963,0c-1.38071,0 -2.5,-1.11929 -2.5,-2.5c0,-0.92661 0.50411,-1.73548 1.25305,-2.1673l2.3311,-1.39866l0.09868,0.16446l0.32378,-0.36676c0.51645,-0.08607 1.0459,-0.12237 1.56711,-0.19022c-0.4287,-0.3099 -0.72862,-0.69593 -0.78188,-1.22779c-0.55112,-5.50407 4.52806,-4.76573 7.18973,-4.89898c0,0 2.5,0 2.5,2.5c0,0.61833 -0.15293,1.08372 -0.38315,1.43401c0.52531,0.4583 0.85723,1.13265 0.85723,1.88453c0,1.0731 -0.67611,1.9883 -1.62559,2.34282l-0.48991,0.19597c0.42946,0.44892 0.69326,1.05761 0.69326,1.72792c0,0.69036 -0.27982,1.31536 -0.73223,1.76777l-0.49403,0.49403c1.22688,0.15956 2.17442,1.20862 2.17442,2.47899c0,1.0731 -0.67611,1.98829 -1.62559,2.34282l-1.07038,0.42815c0.4756,1.36903 -0.67008,2.51471 -0.67008,2.51471l-0.24335,0.24335c-0.10702,0.10702 -0.21356,0.21347 -0.31971,0.31934c0.07856,0.34077 0.07856,0.58971 0.07856,0.58971c0,3.88051 -0.35766,7.68717 -0.57591,11.51779c1.5493,0.53581 1.5493,2.35301 1.5493,2.35301l-0.01027,0.46969c-0.08598,0.86342 0.10499,1.81128 -0.13642,2.6273h0.8102c0,0 2.5,0 2.5,2.5z" fill="#ffffff" fill-rule="nonzero" stroke-width="0.5"/></g><g fill-rule="nonzero" stroke="none" stroke-width="1" stroke-linecap="butt"><g fill="#e2231a"><path d="M307.81642,234.06547c-10.7,1.5 -20.8,1.9 -30.1,1.7c-1.2,-0.1 -2.2,-0.7 -2.7,-1.8c-3.9,-8.4 -9.4,-18.5 -13,-25.8c-0.5,0 -0.8,0.1 -1.5,0.1c0.7,2.7 5,18 7.7,25.7c0.3,0.6 -0.3,1.3 -1,1.3c-8,-0.4 -13.8,-1.2 -19.8,-2.1c-1,-0.1 -1.7,-0.9 -1.8,-1.9c-1.2,-18.3 -2.2,-37 -2.5,-55.2c0,-0.9 0.7,-1.8 1.6,-2c14.9,-3 31.7,-5.4 49.5,-6.5c0.8,-0.1 1.5,0.4 1.9,1.1c4.8,9.4 8.1,19.9 10.1,28.7c0.2,0.6 0,1.1 -0.3,1.6c-1.8,2.5 -4.7,5.4 -6.8,7.1c-0.5,0.4 -1.1,0.7 -1.7,0.7c-5.5,0.4 -11.4,0.7 -16.9,0.9c9.2,7.7 17.9,15.3 27.9,24.5c0.7,0.6 0.3,1.7 -0.6,1.9zM274.21643,186.76547c-4.5,-0.4 -8.8,-0.5 -13,-0.6c0.1,2.2 0.4,5.3 0.7,7.5c3.4,-0.2 8.7,-0.6 12.2,-1c0,-2 0,-4 0.1,-5.9z"/></g><g fill="#ffffff"><path d="M272.41643,204.86547c9.2,8.1 18.1,16.4 27.9,25.9c-6.8,0.6 -13.4,0.8 -20.6,0.8c-5.9,-9.5 -9.4,-16.6 -15.4,-26.3c-2.6,0.1 -5.1,0.2 -7.5,0.3c1.8,9.1 3.8,16.4 6.3,25.3c-5.2,-0.4 -8.4,-0.9 -12.9,-1.5c-1.5,-16.6 -2.4,-32.3 -3,-51.6c14.3,-2.6 30.9,-4.9 46.3,-5.9c3.9,8.4 6.9,17.3 8.7,25.6c-1.4,2.2 -3.4,4.1 -5.2,5.7c-7.1,0.6 -16,1.2 -24.6,1.7zM278.01643,195.96547c0.2,-3.4 0.2,-8.9 0,-12.2c-6.6,-0.6 -13.9,-0.9 -20.7,-0.9c0.2,4.9 0.4,9.7 1.1,14.6c6.7,-0.5 13.3,-1 19.6,-1.5z"/></g></g><g fill-rule="nonzero" stroke="none" stroke-width="1" stroke-linecap="butt"><path d="M239.80655,231.90994c-0.5,1 -1.6,1.7 -2.7,1.7c-12,0.4 -24.7,0.4 -36.1,0c-0.8,0 -1.5,-0.3 -2.1,-0.9c-8,-7.9 -9,-26.9 -9,-43.4c0,-0.3 0,-0.6 0.1,-0.9c1.4,-4.9 3.1,-8.8 5.7,-12.9c0.4,-0.8 1.2,-1.3 2.1,-1.4c12.5,-1.9 28,-1.9 39.8,0c0.5,0.1 1.1,0.3 1.5,0.7c12.2,11 7.8,42.3 0.7,57.1zM225.00655,192.10994c-2.9,-0.3 -10.7,-0.3 -14.6,0c-0.6,6.9 0,16.2 0.9,22.6c3.7,0.2 8.9,0.3 13.1,0.1c1.2,-5.9 1.3,-17 0.6,-22.7z" fill="#e2231a"/><g fill="#ffffff"><path d="M236.00655,229.10994c-10.8,0.4 -24.1,0.5 -33.9,0c-7.4,-5.3 -7.8,-26.7 -7.8,-39.6c1.1,-3.9 3,-8 5,-11c10.2,-1.3 24.7,-1.4 36.3,0c9.9,8.5 6.7,38.6 0.4,50.6zM228.20655,188.30994c-5.5,-0.5 -15.4,-0.4 -21.1,0c-1.5,7.7 -0.2,23.5 1.1,30.2c5.7,0.3 13.8,0.3 19.8,0c1.1,-7.1 2.1,-20.8 0.2,-30.2z"/></g></g><g stroke="none" stroke-linecap="butt"><path d="M170.2238,193.82001c9.21326,-9.12014 24.01389,-20.34031 35.96141,-27.84042c0.5944,-0.36001 1.30768,-0.42001 1.90209,-0.06c4.33914,2.52004 9.92654,7.32011 13.67128,11.58017c0.23776,0.3 0.11889,0.84002 -0.2972,0.96001c-18.84259,6.4801 -29.36352,12.90019 -36.91245,21.96034c-0.2972,0.36001 -0.77272,0.54001 -1.18881,0.42c-4.04194,-0.90001 -9.09437,-3.06005 -12.89855,-5.10008c-0.77272,-0.42001 -0.8916,-1.38002 -0.23776,-1.92003z" data-paper-data="{&quot;index&quot;:null}" fill="#e2231a" fill-rule="evenodd" stroke-width="1"/><path d="M207.13625,168.67963c3.20977,2.22003 7.0734,5.46008 9.98597,8.34013c-17.11882,6.4801 -26.51039,12.36019 -34.11875,21.18032c-2.91258,-0.78001 -7.54892,-2.40004 -10.22374,-3.90006c9.51046,-8.52013 22.46845,-18.12027 34.35652,-25.62038z" data-paper-data="{&quot;index&quot;:null}" fill="#ffffff" fill-rule="evenodd" stroke-width="1"/><path d="M164.79708,234.68857c-0.1457,-13.77884 2.07505,-33.1142 6.66268,-47.25702c0.20745,-0.56338 0.6397,-1.00748 1.2296,-1.29026c6.5647,-2.81136 13.64024,-4.9891 21.40758,-6.12643c0.68037,-0.07938 1.20584,0.45839 1.01301,0.92591c-7.78521,15.192 -10.27192,35.47412 -6.87654,50.25168c0.13707,0.69434 -0.32442,1.33013 -1.08658,1.54744c-7.26243,2.20811 -13.87921,2.97156 -20.55722,3.33994c-0.91979,0.05597 -1.78978,-0.61277 -1.79253,-1.39125z" fill="#e2231a" fill-rule="evenodd" stroke-width="1"/><path d="M189.71909,183.62372c-6.78089,15.7766 -7.52988,34.62358 -5.16166,46.57696c-5.96293,1.65425 -10.55323,2.27541 -16.05739,2.51538c0.27467,-13.34863 1.93157,-31.37726 6.34373,-44.36993c4.12333,-1.54231 9.3972,-3.45849 14.87533,-4.72241z" fill="#ffffff" fill-rule="evenodd" stroke-width="1"/><path d="M185.46035,206.88962c-4.51618,0.60371 -10.23146,0.90494 -14.3775,0.39148c-0.44089,-0.02794 -0.78151,-0.34882 -0.86701,-0.77489c-2.21497,-10.74566 -8.4967,-20.06635 -22.32982,-32.18718c-0.31735,-0.2466 -0.14773,-0.77786 0.22332,-0.97277c5.60467,-2.6461 13.1662,-5.17631 18.41686,-6.04089c0.72689,-0.13191 1.3459,0.15808 1.7022,0.6822c7.02569,10.77541 14.73628,25.88164 18.43683,37.23105c0.3178,0.70774 -0.28464,1.54324 -1.20488,1.671z" data-paper-data="{&quot;index&quot;:null}" fill="#e2231a" fill-rule="evenodd" stroke-width="1"/><path d="M184.08933,204.81273c-3.20922,0.48428 -8.26744,0.43075 -11.32271,0.18055c-2.39266,-10.54658 -7.92332,-19.00266 -20.18582,-30.55478c4.13614,-1.66323 9.32413,-3.34073 13.39135,-4.30456c6.97152,10.75579 13.83701,23.77802 18.11718,34.67879z" data-paper-data="{&quot;index&quot;:null}" fill="#ffffff" fill-rule="evenodd" stroke-width="1"/><path d="M186.82568,189.81742c-1.50756,-1.20699 0,-2.41396 0,-2.41396l0.60965,-0.46713c-0.26627,-0.08144 -0.54172,-0.22138 -0.81718,-0.44192c-1.50756,-1.20699 0,-2.41397 0,-2.41397l0.92124,-0.7334c1.87391,-1.32103 3.77491,-2.19876 5.83705,-3.30134c0,0 1.77394,-0.94684 2.95657,0.47342c1.18263,1.42025 -0.59131,2.36709 -0.59131,2.36709c-0.04532,0.02416 -0.09058,0.04817 -0.13577,0.07207c0.11756,0.05876 0.23675,0.1295 0.35708,0.2138c1.6045,1.12402 0.20057,2.40863 0.20057,2.40863c-1.71206,1.54316 -3.47679,2.48062 -5.61007,3.61925l-0.7127,0.61748c0,0 -1.50756,1.20699 -3.01512,0z" fill="#ffffff" fill-rule="nonzero" stroke-width="0.5"/><path d="M184.27879,185.23229l6.75318,-5.63465l5.09121,3.91125l-6.75317,5.63465z" fill="#ffffff" fill-rule="nonzero" stroke-width="0"/><path d="M186.67325,184.21738l6.75317,-5.63465l5.09122,3.91125l-6.75317,5.63465z" fill="#ffffff" fill-rule="nonzero" stroke-width="0"/><path d="M181.02891,189.7992l7.4614,-5.02954l4.54447,4.32144l-7.46141,5.02954z" fill="#ffffff" fill-rule="nonzero" stroke-width="0"/><path d="M175.33533,206.82645l2.48856,-16.56266l8.37543,0.80664l-2.48856,16.56266z" fill="#ffffff" fill-rule="nonzero" stroke-width="0"/><path d="M171.48794,208.16748v-8.17218h9.70117v8.17218z" fill="#ffffff" fill-rule="nonzero" stroke-width="0"/><path d="M174.35612,192.1608v-5.26802h8.68888v5.26802z" fill="#ffffff" fill-rule="nonzero" stroke-width="0"/><path d="M172.75331,209.46918c-0.53955,-0.24685 -1.2829,-0.33161 -1.69956,-0.67619c-0.06355,-0.05255 -0.11948,-0.11115 -0.16595,-0.17728c-0.0736,-0.10474 -0.12705,-0.21787 -0.16639,-0.33504c-0.06502,-0.1635 -0.10011,-0.33768 -0.10011,-0.51843c-0.28932,-3.10423 0.2063,-7.55728 0.33743,-10.53605c0.03957,-0.89887 0.73189,-1.70693 2.13201,-1.70693c1.39982,0 2.0926,0.80806 2.13201,1.70693c0.13875,3.16408 -0.07254,6.04255 -0.33743,9.11773c-0.06579,0.76378 0.53565,1.9048 -0.29461,2.28464z" fill="#ffffff" fill-rule="nonzero" stroke-width="0.5"/></g><path d="M170.8897,117.1684l3.31856,23.22987l15.17052,-6.16303v19.91132l14.22237,10.42974l-18.48908,9.95566l-0.47408,18.015l-18.48908,-11.37789l-16.59276,15.64461l-4.74079,-18.96316l-26.54843,1.42224l13.27421,-16.59277l-16.11868,-13.74829l21.33356,-5.68894l-0.47408,-22.75579l17.54093,11.85197z" fill="#fff100" fill-rule="nonzero" stroke="#000000" stroke-width="4" stroke-linecap="round"/><text transform="translate(144.48768,156.04834) rotate(-8.79262) scale(0.38441,0.38441)" font-size="40" xml:space="preserve" fill="#000000" fill-rule="nonzero" stroke="none" stroke-width="1" stroke-linecap="butt" stroke-linejoin="miter" stroke-miterlimit="10" stroke-dasharray="" stroke-dashoffset="0" font-family="Marker" font-weight="normal" text-anchor="start" style="mix-blend-mode: normal"><tspan x="0" dy="0">New</tspan><tspan x="0" dy="46.150000000000006px">New</tspan></text></g></g></svg>